<svg width="372" height="144" viewBox="0 0 372 144" fill="none" xmlns="http://www.w3.org/2000/svg">
<path d="M54.5 87L52 105L60 103.5" stroke="white"/>
<path d="M282.101 30.1376L312.129 29.3652L311.862 40.362" stroke="white"/>
<g filter="url(#filter0_d_232_316)">
<path d="M311.252 125.442L66 113.262L68.3347 80.2433L321.924 80.8445L311.252 125.442Z" fill="#248F1B"/>
</g>
<g filter="url(#filter1_d_232_316)">
<path d="M63.5 39L309 32V77L56 100.5L63.5 39Z" fill="#248F1B"/>
</g>
<path d="M19.2763 79.799C19.6096 79.6066 20.0263 79.8472 20.0263 80.2321L20.0263 95.8205C20.0263 96.2054 19.6096 96.446 19.2763 96.2535L5.77628 88.4593C5.44295 88.2668 5.44295 87.7857 5.77628 87.5933L19.2763 79.799Z" stroke="white"/>
<path d="M347.83 23.7603C347.639 23.4263 347.881 23.0105 348.266 23.012L363.854 23.0709C364.239 23.0723 364.478 23.4899 364.285 23.8225L356.439 37.293C356.246 37.6256 355.765 37.6238 355.573 37.2897L347.83 23.7603Z" stroke="white"/>
<path d="M40.9083 128.652C41.1829 128.397 41.6295 128.524 41.7299 128.884L44.3649 138.353C44.4695 138.729 44.1224 139.075 43.7469 138.968L33.9035 136.181C33.528 136.074 33.4136 135.598 33.6998 135.333L40.9083 128.652Z" stroke="white"/>
<path d="M336.328 91.3264C336.602 90.9608 337.183 91.1253 337.225 91.5806L337.63 95.9441C337.662 96.2937 337.334 96.567 336.996 96.4713L333.958 95.6112C333.621 95.5155 333.484 95.1105 333.695 94.8298L336.328 91.3264Z" stroke="white"/>
<path d="M57 62L60.5 37L93 35.5" stroke="white"/>
<circle cx="254" cy="9" r="8.5" stroke="white"/>
<circle cx="87.5" cy="22.5" r="5" stroke="white"/>
<circle cx="340" cy="127" r="3.5" stroke="white"/>
<path d="M282.5 126.5L313.5 128.5L318 109" stroke="white"/>
<path d="M71.0643 70V47.28H78.9363C82.4989 47.28 85.3469 48.336 87.4803 50.448C89.6349 52.5387 90.7123 55.28 90.7123 58.672C90.7123 62.064 89.6669 64.8053 87.5763 66.896C85.5069 68.9653 82.6589 70 79.0323 70H71.0643ZM76.3443 65.232H78.6803C80.6003 65.232 82.1576 64.6133 83.3523 63.376C84.5469 62.1173 85.1443 60.5493 85.1443 58.672C85.1443 56.7733 84.5683 55.1947 83.4163 53.936C82.2643 52.6773 80.8136 52.048 79.0643 52.048H76.3443V65.232ZM93.8195 70V47.28H99.2275V70H93.8195ZM114.074 70.256C110.682 70.256 107.876 69.2213 105.658 67.152C103.46 65.0827 102.362 62.256 102.362 58.672C102.362 55.28 103.396 52.4853 105.466 50.288C107.535 48.0693 110.34 46.96 113.882 46.96C115.567 46.96 117.231 47.312 118.874 48.016C120.538 48.72 121.935 49.7227 123.066 51.024L119.258 54.224C117.722 52.7307 115.919 51.984 113.85 51.984C112.186 51.984 110.778 52.592 109.626 53.808C108.495 55.0027 107.93 56.624 107.93 58.672C107.93 60.5707 108.484 62.16 109.594 63.44C110.703 64.72 112.196 65.36 114.074 65.36C115.418 65.36 116.708 65.0293 117.946 64.368V61.776H113.594V57.264H123.098V67.472C122.052 68.304 120.719 68.976 119.098 69.488C117.476 70 115.802 70.256 114.074 70.256ZM126.574 70V47.28H131.982V70H126.574ZM140.62 70V52.048H134.604V47.28H151.948V52.048H145.932V70H140.62ZM166.226 70L164.882 65.936H156.914L155.602 70H150.002L158.322 47.28H163.442L171.826 70H166.226ZM158.386 61.392H163.41L160.914 53.744H160.85L158.386 61.392ZM173.797 70V47.28H179.173V65.232H188.708V70H173.797ZM206.256 70.16C203.098 70.16 200.464 68.9973 198.352 66.672L199.536 65.296C200.368 66.2987 201.381 67.0667 202.576 67.6C203.77 68.1333 204.997 68.4 206.256 68.4C207.834 68.4 209.125 68.0267 210.128 67.28C211.152 66.512 211.664 65.5093 211.664 64.272C211.664 63.568 211.536 62.96 211.28 62.448C211.045 61.9147 210.672 61.4667 210.16 61.104C209.669 60.7413 209.146 60.432 208.592 60.176C208.058 59.92 207.386 59.632 206.576 59.312C206.49 59.2907 206.416 59.2693 206.352 59.248C206.309 59.2267 206.245 59.2053 206.16 59.184C206.096 59.1413 206.032 59.1093 205.968 59.088C205.264 58.8107 204.794 58.6293 204.56 58.544C204.346 58.4587 203.92 58.2773 203.28 58C202.64 57.7013 202.192 57.4667 201.936 57.296C201.701 57.1253 201.36 56.8693 200.912 56.528C200.485 56.1867 200.176 55.856 199.984 55.536C199.813 55.1947 199.642 54.8 199.472 54.352C199.322 53.8827 199.248 53.3813 199.248 52.848C199.248 51.2267 199.888 49.872 201.168 48.784C202.469 47.6747 204.069 47.12 205.968 47.12C208.464 47.12 210.768 47.9627 212.88 49.648L211.728 51.12C209.914 49.6267 207.994 48.88 205.968 48.88C204.666 48.88 203.546 49.2213 202.608 49.904C201.669 50.5867 201.2 51.5253 201.2 52.72C201.2 52.9973 201.221 53.264 201.264 53.52C201.328 53.7547 201.392 53.968 201.456 54.16C201.52 54.3307 201.637 54.5227 201.808 54.736C201.978 54.928 202.117 55.088 202.224 55.216C202.33 55.3227 202.522 55.4613 202.8 55.632C203.077 55.8027 203.269 55.9307 203.376 56.016C203.504 56.1013 203.749 56.2293 204.112 56.4C204.496 56.5493 204.752 56.656 204.88 56.72C205.008 56.7627 205.285 56.8693 205.712 57.04C206.16 57.2107 206.448 57.3173 206.576 57.36C208.858 58.2773 210.33 58.9493 210.992 59.376C212.72 60.4853 213.584 62.0533 213.584 64.08C213.584 65.9147 212.88 67.3867 211.472 68.496C210.085 69.6053 208.346 70.16 206.256 70.16ZM228.347 70.128C225.168 70.128 222.512 69.1253 220.379 67.12C218.246 65.0933 217.179 62.2987 217.179 58.736C217.179 55.3867 218.171 52.6133 220.155 50.416C222.139 48.2187 224.87 47.12 228.347 47.12C231.867 47.12 234.79 48.5493 237.115 51.408L235.707 52.56C233.744 50.1067 231.291 48.88 228.347 48.88C225.467 48.88 223.195 49.7973 221.531 51.632C219.888 53.4667 219.067 55.8347 219.067 58.736C219.067 61.68 219.942 64.016 221.691 65.744C223.44 67.472 225.659 68.336 228.347 68.336C231.27 68.336 233.723 67.12 235.707 64.688L237.115 65.84C234.832 68.6987 231.91 70.128 228.347 70.128ZM251.445 70.16C248.139 70.16 245.429 69.0613 243.317 66.864C241.227 64.6453 240.181 61.8933 240.181 58.608C240.181 55.344 241.227 52.6133 243.317 50.416C245.429 48.2187 248.139 47.12 251.445 47.12C254.645 47.12 257.312 48.1867 259.445 50.32C261.6 52.4533 262.677 55.216 262.677 58.608C262.677 62.0213 261.6 64.8053 259.445 66.96C257.312 69.0933 254.645 70.16 251.445 70.16ZM251.445 68.368C254.069 68.368 256.277 67.4613 258.069 65.648C259.883 63.8133 260.789 61.4667 260.789 58.608C260.789 55.7707 259.883 53.4453 258.069 51.632C256.277 49.7973 254.069 48.88 251.445 48.88C248.693 48.88 246.443 49.8187 244.693 51.696C242.944 53.5733 242.069 55.8773 242.069 58.608C242.069 61.36 242.944 63.6747 244.693 65.552C246.443 67.4293 248.693 68.368 251.445 68.368ZM275.743 70.16C273.183 70.16 271.113 69.328 269.535 67.664C267.977 66 267.199 63.728 267.199 60.848V47.28H268.991V60.688C268.991 63.0347 269.599 64.9013 270.815 66.288C272.052 67.6747 273.695 68.368 275.743 68.368C277.791 68.368 279.433 67.6853 280.671 66.32C281.929 64.9547 282.559 63.0773 282.559 60.688V47.28H284.351V60.848C284.351 63.728 283.561 66 281.983 67.664C280.425 69.328 278.345 70.16 275.743 70.16ZM294.89 70V48.976H287.786V47.28H303.914V48.976H296.714V70H294.89Z" fill="white"/>
<path d="M156.911 107.282C155.302 107.228 153.941 106.584 152.83 105.351L154.229 103.733C154.619 104.216 155.06 104.589 155.552 104.851C156.046 105.102 156.532 105.236 157.012 105.252C157.545 105.27 157.954 105.177 158.238 104.973C158.523 104.759 158.671 104.47 158.683 104.108C158.697 103.713 158.563 103.41 158.282 103.198C158.001 102.975 157.492 102.723 156.754 102.442C156.249 102.243 155.828 102.058 155.492 101.887C155.157 101.705 154.813 101.469 154.46 101.18C154.107 100.89 153.846 100.545 153.678 100.145C153.51 99.7442 153.435 99.2881 153.452 98.7764C153.483 97.8702 153.86 97.1198 154.585 96.5253C155.309 95.9307 156.183 95.64 157.208 95.6532C158.594 95.6893 159.852 96.212 160.981 97.2213L159.628 98.8727C158.758 98.0962 157.944 97.6952 157.188 97.6697C156.782 97.656 156.449 97.7461 156.186 97.9401C155.934 98.1343 155.802 98.4074 155.79 98.7592C155.768 99.0893 155.892 99.3603 156.163 99.5722C156.434 99.7735 156.926 100.03 157.642 100.343C158.799 100.84 159.555 101.218 159.909 101.476C160.7 102.057 161.078 102.876 161.043 103.931C161.004 105.072 160.57 105.927 159.739 106.497C158.909 107.056 157.967 107.317 156.911 107.282ZM167.423 99.5679C169.342 99.6327 170.265 100.747 170.192 102.911L170.034 107.597L167.939 107.526L168.079 103.368C168.103 102.675 167.991 102.181 167.745 101.884C167.51 101.588 167.136 101.431 166.624 101.414C166.049 101.395 165.59 101.561 165.247 101.912C164.915 102.253 164.738 102.765 164.715 103.447L164.581 107.413L162.486 107.342L162.883 95.5726L164.978 95.6432L164.812 100.552L164.844 100.554C165.508 99.8608 166.368 99.5323 167.423 99.5679ZM175.595 107.912C174.369 107.871 173.385 107.459 172.643 106.676C171.901 105.893 171.55 104.915 171.59 103.743C171.629 102.57 172.045 101.618 172.839 100.887C173.632 100.156 174.641 99.8114 175.867 99.8528C177.082 99.8938 178.067 100.301 178.82 101.073C179.573 101.846 179.929 102.829 179.889 104.023C179.849 105.217 179.427 106.174 178.623 106.894C177.82 107.614 176.811 107.953 175.595 107.912ZM175.658 106.041C176.234 106.061 176.721 105.874 177.118 105.482C177.526 105.09 177.741 104.58 177.762 103.951C177.784 103.311 177.609 102.788 177.239 102.38C176.869 101.962 176.39 101.744 175.804 101.724C175.207 101.704 174.71 101.895 174.312 102.298C173.925 102.69 173.721 103.196 173.7 103.814C173.68 104.422 173.855 104.94 174.224 105.369C174.594 105.797 175.072 106.022 175.658 106.041ZM189.978 100.457L192.073 100.528L189.155 108.242L187.348 108.181L186.135 103.321L186.103 103.32L184.565 108.087L182.775 108.026L180.367 100.133L182.462 100.203L183.821 105.004L183.853 105.005L185.372 100.302L187.052 100.358L188.266 105.154L188.298 105.155L189.978 100.457ZM196.148 108.606C194.975 108.566 194.023 108.16 193.291 107.389C192.57 106.617 192.23 105.635 192.27 104.441C192.31 103.247 192.721 102.289 193.503 101.568C194.296 100.848 195.3 100.508 196.515 100.549C197.166 100.571 197.78 100.72 198.357 100.996C198.935 101.271 199.408 101.656 199.775 102.148L198.327 103.316C197.866 102.746 197.268 102.448 196.532 102.423C195.914 102.402 195.406 102.588 195.009 102.98C194.612 103.362 194.402 103.867 194.381 104.496C194.36 105.135 194.534 105.664 194.904 106.082C195.285 106.501 195.784 106.72 196.403 106.741C197.149 106.766 197.765 106.52 198.253 106.003L199.633 107.314C199.257 107.718 198.765 108.043 198.159 108.289C197.564 108.525 196.894 108.631 196.148 108.606ZM206.739 101.022L208.818 101.093L208.555 108.896L206.572 108.829L206.604 107.886L206.556 107.884C205.988 108.58 205.198 108.911 204.185 108.877C203.098 108.84 202.215 108.442 201.536 107.683C200.868 106.913 200.554 105.931 200.595 104.737C200.634 103.565 201.013 102.612 201.732 101.878C202.461 101.134 203.354 100.78 204.409 100.816C205.379 100.849 206.13 101.21 206.662 101.9L206.71 101.902L206.739 101.022ZM204.632 107.019C205.186 107.038 205.662 106.856 206.059 106.475C206.456 106.093 206.665 105.588 206.687 104.959C206.708 104.33 206.539 103.801 206.18 103.373C205.821 102.945 205.359 102.721 204.794 102.702C204.218 102.682 203.731 102.869 203.334 103.261C202.937 103.642 202.727 104.164 202.705 104.825C202.684 105.454 202.853 105.972 203.213 106.379C203.573 106.786 204.046 106.999 204.632 107.019ZM212.977 109.173C211.751 109.132 210.708 108.718 209.849 107.931L210.921 106.511C211.541 107.14 212.25 107.468 213.049 107.495C213.348 107.505 213.584 107.454 213.759 107.343C213.933 107.231 214.024 107.08 214.03 106.888C214.036 106.717 213.94 106.57 213.741 106.446C213.543 106.322 213.174 106.165 212.636 105.976C211.888 105.695 211.307 105.36 210.893 104.973C210.49 104.575 210.3 104.035 210.324 103.353C210.347 102.66 210.632 102.109 211.18 101.701C211.727 101.282 212.406 101.086 213.217 101.113C214.283 101.149 215.221 101.506 216.03 102.184L214.971 103.686C214.403 103.111 213.789 102.813 213.128 102.791C212.936 102.784 212.758 102.832 212.595 102.933C212.432 103.024 212.347 103.165 212.341 103.357C212.335 103.506 212.421 103.648 212.598 103.782C212.786 103.905 213.085 104.054 213.496 104.228C213.917 104.402 214.227 104.536 214.427 104.628C214.627 104.709 214.863 104.835 215.135 105.004C215.407 105.162 215.594 105.318 215.695 105.471C215.808 105.614 215.903 105.804 215.98 106.041C216.068 106.279 216.107 106.547 216.097 106.845C216.073 107.57 215.792 108.148 215.254 108.578C214.727 109.008 213.968 109.207 212.977 109.173ZM224.816 105.459C224.802 105.874 224.778 106.124 224.743 106.209L219.258 106.023C219.37 106.497 219.597 106.873 219.94 107.151C220.283 107.43 220.705 107.577 221.206 107.594C221.963 107.63 222.596 107.358 223.107 106.778L224.423 108.087C223.612 109.041 222.471 109.494 221 109.444C219.838 109.405 218.891 108.999 218.159 108.228C217.427 107.456 217.082 106.468 217.122 105.263C217.162 104.09 217.557 103.143 218.307 102.421C219.068 101.689 220.008 101.342 221.128 101.38C222.258 101.418 223.162 101.822 223.84 102.592C224.53 103.352 224.855 104.307 224.816 105.459ZM221.129 103.221C220.692 103.206 220.315 103.311 219.998 103.535C219.681 103.759 219.457 104.088 219.325 104.521L222.763 104.637C222.559 103.723 222.014 103.251 221.129 103.221ZM235.627 101.997L237.802 102.071L233.226 112.898L231.084 112.826L232.582 109.227L229.727 101.798L231.901 101.871L233.657 106.765L233.673 106.766L235.627 101.997ZM241.997 110.153C240.771 110.111 239.787 109.699 239.045 108.916C238.303 108.134 237.952 107.156 237.992 105.983C238.031 104.81 238.448 103.859 239.241 103.128C240.034 102.397 241.043 102.052 242.269 102.093C243.485 102.134 244.469 102.541 245.222 103.313C245.975 104.086 246.331 105.069 246.291 106.263C246.251 107.457 245.829 108.414 245.025 109.134C244.222 109.854 243.213 110.194 241.997 110.153ZM242.06 108.282C242.636 108.301 243.123 108.115 243.52 107.723C243.928 107.331 244.143 106.82 244.164 106.191C244.186 105.552 244.011 105.028 243.641 104.621C243.271 104.203 242.792 103.984 242.206 103.964C241.609 103.944 241.112 104.135 240.714 104.538C240.327 104.931 240.123 105.436 240.102 106.054C240.082 106.662 240.257 107.18 240.626 107.609C240.996 108.038 241.474 108.262 242.06 108.282ZM253.027 102.584L255.122 102.655L254.859 110.458L252.764 110.388L252.796 109.428L252.764 109.427C252.143 110.132 251.358 110.468 250.409 110.436C248.501 110.372 247.583 109.263 247.656 107.11L247.814 102.408L249.893 102.478L249.753 106.62C249.73 107.324 249.82 107.823 250.023 108.118C250.237 108.413 250.595 108.57 251.096 108.587C251.576 108.603 251.987 108.419 252.331 108.036C252.686 107.642 252.875 107.088 252.899 106.374L253.027 102.584ZM261.499 102.742C261.584 102.745 261.638 102.752 261.659 102.763L261.582 105.034C261.444 105.019 261.263 105.007 261.039 105C260.41 104.979 259.913 105.154 259.548 105.526C259.184 105.887 258.992 106.366 258.971 106.963L258.849 110.593L256.754 110.522L257.017 102.719L259.112 102.79L259.073 103.941L259.089 103.941C259.726 103.109 260.529 102.709 261.499 102.742ZM269.07 111.066C268.377 111.043 267.841 110.806 267.461 110.355C267.081 109.905 266.906 109.253 266.935 108.401L267.057 104.787L266.129 104.755L266.187 103.028L267.115 103.06L267.201 100.501L269.288 100.347L269.194 103.13L271.32 103.201L271.262 104.928L269.135 104.857L269.023 108.183C269.001 108.844 269.219 109.182 269.677 109.197C269.976 109.208 270.309 109.128 270.678 108.959L271.165 110.656C270.557 110.956 269.859 111.093 269.07 111.066ZM277.956 103.425L280.034 103.495L279.771 111.299L277.788 111.232L277.82 110.289L277.772 110.287C277.204 110.983 276.414 111.314 275.401 111.28C274.314 111.243 273.431 110.845 272.752 110.086C272.084 109.316 271.771 108.334 271.811 107.14C271.85 105.968 272.229 105.014 272.948 104.281C273.677 103.537 274.57 103.183 275.625 103.219C276.595 103.251 277.346 103.613 277.878 104.303L277.926 104.305L277.956 103.425ZM275.848 109.422C276.403 109.44 276.878 109.259 277.275 108.877C277.673 108.496 277.882 107.991 277.903 107.362C277.924 106.733 277.755 106.204 277.396 105.776C277.037 105.347 276.575 105.124 276.01 105.105C275.434 105.085 274.948 105.272 274.55 105.664C274.153 106.045 273.943 106.566 273.921 107.227C273.9 107.856 274.069 108.374 274.429 108.781C274.789 109.188 275.262 109.402 275.848 109.422ZM281.767 111.366L282.164 99.597L284.259 99.6677L283.862 111.437L281.767 111.366ZM293.331 107.77C293.317 108.186 293.292 108.436 293.258 108.52L287.773 108.335C287.885 108.809 288.112 109.184 288.455 109.463C288.798 109.741 289.22 109.889 289.721 109.906C290.477 109.942 291.111 109.67 291.621 109.089L292.938 110.398C292.127 111.353 290.985 111.805 289.514 111.756C288.352 111.717 287.405 111.311 286.674 110.539C285.942 109.768 285.596 108.779 285.637 107.575C285.677 106.402 286.072 105.455 286.822 104.733C287.583 104.001 288.523 103.654 289.642 103.692C290.772 103.73 291.677 104.134 292.355 104.904C293.044 105.663 293.37 106.619 293.331 107.77ZM289.644 105.533C289.207 105.518 288.83 105.623 288.513 105.847C288.196 106.071 287.971 106.399 287.839 106.833L291.277 106.949C291.073 106.034 290.529 105.563 289.644 105.533ZM299.604 104.028C301.501 104.092 302.413 105.222 302.339 107.418L302.183 112.055L300.088 111.984L300.226 107.875C300.251 107.161 300.145 106.655 299.909 106.359C299.674 106.052 299.301 105.89 298.789 105.873C298.245 105.855 297.807 106.027 297.475 106.389C297.143 106.741 296.965 107.258 296.942 107.94L296.81 111.874L294.715 111.803L294.978 104L297.073 104.07L297.039 105.078L297.071 105.079C297.736 104.344 298.58 103.993 299.604 104.028ZM306.451 112.327C305.758 112.304 305.221 112.067 304.842 111.617C304.462 111.166 304.286 110.515 304.315 109.662L304.437 106.048L303.51 106.016L303.568 104.289L304.495 104.321L304.582 101.762L306.668 101.608L306.574 104.391L308.701 104.463L308.643 106.19L306.516 106.118L306.404 109.444C306.381 110.105 306.6 110.443 307.058 110.459C307.356 110.469 307.69 110.389 308.059 110.22L308.546 111.918C307.938 112.217 307.239 112.354 306.451 112.327Z" fill="white"/>
<defs>
<filter id="filter0_d_232_316" x="62" y="80.2433" width="263.924" height="53.1982" filterUnits="userSpaceOnUse" color-interpolation-filters="sRGB">
<feFlood flood-opacity="0" result="BackgroundImageFix"/>
<feColorMatrix in="SourceAlpha" type="matrix" values="0 0 0 0 0 0 0 0 0 0 0 0 0 0 0 0 0 0 127 0" result="hardAlpha"/>
<feOffset dy="4"/>
<feGaussianBlur stdDeviation="2"/>
<feComposite in2="hardAlpha" operator="out"/>
<feColorMatrix type="matrix" values="0 0 0 0 0 0 0 0 0 0 0 0 0 0 0 0 0 0 0.25 0"/>
<feBlend mode="normal" in2="BackgroundImageFix" result="effect1_dropShadow_232_316"/>
<feBlend mode="normal" in="SourceGraphic" in2="effect1_dropShadow_232_316" result="shape"/>
</filter>
<filter id="filter1_d_232_316" x="52" y="32" width="261" height="76.5" filterUnits="userSpaceOnUse" color-interpolation-filters="sRGB">
<feFlood flood-opacity="0" result="BackgroundImageFix"/>
<feColorMatrix in="SourceAlpha" type="matrix" values="0 0 0 0 0 0 0 0 0 0 0 0 0 0 0 0 0 0 127 0" result="hardAlpha"/>
<feOffset dy="4"/>
<feGaussianBlur stdDeviation="2"/>
<feComposite in2="hardAlpha" operator="out"/>
<feColorMatrix type="matrix" values="0 0 0 0 0 0 0 0 0 0 0 0 0 0 0 0 0 0 0.25 0"/>
<feBlend mode="normal" in2="BackgroundImageFix" result="effect1_dropShadow_232_316"/>
<feBlend mode="normal" in="SourceGraphic" in2="effect1_dropShadow_232_316" result="shape"/>
</filter>
</defs>
</svg>
