<svg width="364" height="503" viewBox="0 0 364 503" fill="none" xmlns="http://www.w3.org/2000/svg">
<rect x="2" width="361" height="503" fill="#248F1B"/>
<rect x="2" width="361" height="74" fill="#1C7C13"/>
<rect x="2" y="152" width="361" height="74" fill="#1C7C13"/>
<rect x="2" y="278" width="361" height="74" fill="#1C7C13"/>
<rect x="2" y="429" width="361" height="74" fill="#1C7C13"/>
<rect x="22" y="19" width="319" height="459" rx="3" stroke="white" stroke-width="2"/>
<line x1="22" y1="251" x2="341" y2="251" stroke="white" stroke-width="2"/>
<rect x="130" y="19" width="103" height="36" stroke="white" stroke-width="2"/>
<mask id="path-9-inside-1_24_225" fill="white">
<path d="M204 111C204 115.774 201.682 120.352 197.556 123.728C193.43 127.104 187.835 129 182 129C176.165 129 170.569 127.104 166.444 123.728C162.318 120.352 160 115.774 160 111L182 111H204Z"/>
</mask>
<path d="M204 111C204 115.774 201.682 120.352 197.556 123.728C193.43 127.104 187.835 129 182 129C176.165 129 170.569 127.104 166.444 123.728C162.318 120.352 160 115.774 160 111L182 111H204Z" stroke="white" stroke-width="4" mask="url(#path-9-inside-1_24_225)"/>
<mask id="path-10-inside-2_24_225" fill="white">
<path d="M44 19C44 21.3638 43.431 23.7044 42.3253 25.8883C41.2197 28.0722 39.5992 30.0565 37.5564 31.7279C35.5135 33.3994 33.0882 34.7252 30.419 35.6298C27.7499 36.5344 24.8891 37 22 37L22 20.6673C22.2676 20.6673 22.5326 20.6242 22.7799 20.5404C23.0271 20.4566 23.2518 20.3338 23.441 20.179C23.6302 20.0242 23.7803 19.8404 23.8827 19.6381C23.9852 19.4358 24.0379 19.219 24.0379 19H44Z"/>
</mask>
<path d="M44 19C44 21.3638 43.431 23.7044 42.3253 25.8883C41.2197 28.0722 39.5992 30.0565 37.5564 31.7279C35.5135 33.3994 33.0882 34.7252 30.419 35.6298C27.7499 36.5344 24.8891 37 22 37L22 20.6673C22.2676 20.6673 22.5326 20.6242 22.7799 20.5404C23.0271 20.4566 23.2518 20.3338 23.441 20.179C23.6302 20.0242 23.7803 19.8404 23.8827 19.6381C23.9852 19.4358 24.0379 19.219 24.0379 19H44Z" stroke="white" stroke-width="4" mask="url(#path-10-inside-2_24_225)"/>
<mask id="path-11-inside-3_24_225" fill="white">
<path d="M320 19C320 21.3638 320.569 23.7044 321.675 25.8883C322.78 28.0722 324.401 30.0565 326.444 31.7279C328.487 33.3994 330.912 34.7252 333.581 35.6298C336.25 36.5344 339.111 37 342 37L342 20.6673C341.732 20.6673 341.467 20.6242 341.22 20.5404C340.973 20.4566 340.748 20.3338 340.559 20.179C340.37 20.0242 340.22 19.8404 340.117 19.6381C340.015 19.4358 339.962 19.219 339.962 19H320Z"/>
</mask>
<path d="M320 19C320 21.3638 320.569 23.7044 321.675 25.8883C322.78 28.0722 324.401 30.0565 326.444 31.7279C328.487 33.3994 330.912 34.7252 333.581 35.6298C336.25 36.5344 339.111 37 342 37L342 20.6673C341.732 20.6673 341.467 20.6242 341.22 20.5404C340.973 20.4566 340.748 20.3338 340.559 20.179C340.37 20.0242 340.22 19.8404 340.117 19.6381C340.015 19.4358 339.962 19.219 339.962 19H320Z" stroke="white" stroke-width="4" mask="url(#path-11-inside-3_24_225)"/>
<mask id="path-12-inside-4_24_225" fill="white">
<path d="M320 478C320 475.636 320.569 473.296 321.675 471.112C322.78 468.928 324.401 466.944 326.444 465.272C328.487 463.601 330.912 462.275 333.581 461.37C336.25 460.466 339.111 460 342 460L342 476.333C341.732 476.333 341.467 476.376 341.22 476.46C340.973 476.543 340.748 476.666 340.559 476.821C340.37 476.976 340.22 477.16 340.117 477.362C340.015 477.564 339.962 477.781 339.962 478H320Z"/>
</mask>
<path d="M320 478C320 475.636 320.569 473.296 321.675 471.112C322.78 468.928 324.401 466.944 326.444 465.272C328.487 463.601 330.912 462.275 333.581 461.37C336.25 460.466 339.111 460 342 460L342 476.333C341.732 476.333 341.467 476.376 341.22 476.46C340.973 476.543 340.748 476.666 340.559 476.821C340.37 476.976 340.22 477.16 340.117 477.362C340.015 477.564 339.962 477.781 339.962 478H320Z" stroke="white" stroke-width="4" mask="url(#path-12-inside-4_24_225)"/>
<mask id="path-13-inside-5_24_225" fill="white">
<path d="M44 478C44 475.636 43.431 473.296 42.3253 471.112C41.2197 468.928 39.5992 466.944 37.5564 465.272C35.5135 463.601 33.0882 462.275 30.419 461.37C27.7499 460.466 24.8891 460 22 460L22 476.333C22.2676 476.333 22.5326 476.376 22.7799 476.46C23.0271 476.543 23.2518 476.666 23.441 476.821C23.6302 476.976 23.7803 477.16 23.8827 477.362C23.9852 477.564 24.0379 477.781 24.0379 478H44Z"/>
</mask>
<path d="M44 478C44 475.636 43.431 473.296 42.3253 471.112C41.2197 468.928 39.5992 466.944 37.5564 465.272C35.5135 463.601 33.0882 462.275 30.419 461.37C27.7499 460.466 24.8891 460 22 460L22 476.333C22.2676 476.333 22.5326 476.376 22.7799 476.46C23.0271 476.543 23.2518 476.666 23.441 476.821C23.6302 476.976 23.7803 477.16 23.8827 477.362C23.9852 477.564 24.0379 477.781 24.0379 478H44Z" stroke="white" stroke-width="4" mask="url(#path-13-inside-5_24_225)"/>
<rect x="90.9999" y="19" width="182" height="93" stroke="white" stroke-width="2"/>
<rect x="234" y="478" width="103" height="36" transform="rotate(-180 234 478)" stroke="white" stroke-width="2"/>
<mask id="path-16-inside-6_24_225" fill="white">
<path d="M160 386C160 381.226 162.318 376.648 166.444 373.272C170.569 369.896 176.165 368 182 368C187.835 368 193.431 369.896 197.556 373.272C201.682 376.648 204 381.226 204 386L182 386L160 386Z"/>
</mask>
<path d="M160 386C160 381.226 162.318 376.648 166.444 373.272C170.569 369.896 176.165 368 182 368C187.835 368 193.431 369.896 197.556 373.272C201.682 376.648 204 381.226 204 386L182 386L160 386Z" stroke="white" stroke-width="4" mask="url(#path-16-inside-6_24_225)"/>
<rect x="273" y="478" width="182" height="93" transform="rotate(-180 273 478)" stroke="white" stroke-width="2"/>
<circle cx="185" cy="252" r="50" stroke="white" stroke-width="2"/>
<g filter="url(#filter0_d_24_225)">
<circle cx="70" cy="138" r="20" fill="#6485C6"/>
</g>
<path d="M61.0966 144V142.477L65.1364 138.517C65.5227 138.127 65.8447 137.78 66.1023 137.477C66.3598 137.174 66.553 136.881 66.6818 136.597C66.8106 136.312 66.875 136.009 66.875 135.688C66.875 135.32 66.7917 135.006 66.625 134.744C66.4583 134.479 66.2292 134.275 65.9375 134.131C65.6458 133.987 65.3144 133.915 64.9432 133.915C64.5606 133.915 64.2254 133.994 63.9375 134.153C63.6496 134.309 63.4261 134.53 63.267 134.818C63.1117 135.106 63.0341 135.449 63.0341 135.847H61.0284C61.0284 135.108 61.197 134.466 61.5341 133.92C61.8712 133.375 62.3352 132.953 62.9261 132.653C63.5208 132.354 64.2027 132.205 64.9716 132.205C65.7519 132.205 66.4375 132.35 67.0284 132.642C67.6193 132.934 68.0777 133.333 68.4034 133.841C68.733 134.348 68.8977 134.928 68.8977 135.58C68.8977 136.015 68.8144 136.443 68.6477 136.864C68.4811 137.284 68.1875 137.75 67.767 138.261C67.3504 138.773 66.7652 139.392 66.0114 140.119L64.0057 142.159V142.239H69.0739V144H61.0966ZM71.0341 144V142.477L75.0739 138.517C75.4602 138.127 75.7822 137.78 76.0398 137.477C76.2973 137.174 76.4905 136.881 76.6193 136.597C76.7481 136.312 76.8125 136.009 76.8125 135.688C76.8125 135.32 76.7292 135.006 76.5625 134.744C76.3958 134.479 76.1667 134.275 75.875 134.131C75.5833 133.987 75.2519 133.915 74.8807 133.915C74.4981 133.915 74.1629 133.994 73.875 134.153C73.5871 134.309 73.3636 134.53 73.2045 134.818C73.0492 135.106 72.9716 135.449 72.9716 135.847H70.9659C70.9659 135.108 71.1345 134.466 71.4716 133.92C71.8087 133.375 72.2727 132.953 72.8636 132.653C73.4583 132.354 74.1402 132.205 74.9091 132.205C75.6894 132.205 76.375 132.35 76.9659 132.642C77.5568 132.934 78.0152 133.333 78.3409 133.841C78.6705 134.348 78.8352 134.928 78.8352 135.58C78.8352 136.015 78.7519 136.443 78.5852 136.864C78.4186 137.284 78.125 137.75 77.7045 138.261C77.2879 138.773 76.7027 139.392 75.9489 140.119L73.9432 142.159V142.239H79.0114V144H71.0341Z" fill="white"/>
<g filter="url(#filter1_d_24_225)">
<circle cx="220" cy="138" r="20" fill="#6485C6"/>
</g>
<path d="M216.861 132.364V144H214.753V134.415H214.685L211.963 136.153V134.222L214.855 132.364H216.861ZM223.861 144.159C223.103 144.159 222.425 144.017 221.827 143.733C221.228 143.445 220.753 143.051 220.401 142.551C220.052 142.051 219.866 141.479 219.844 140.835H221.889C221.927 141.312 222.134 141.703 222.509 142.006C222.884 142.305 223.334 142.455 223.861 142.455C224.274 142.455 224.641 142.36 224.963 142.17C225.285 141.981 225.539 141.718 225.724 141.381C225.91 141.044 226.001 140.659 225.997 140.227C226.001 139.788 225.908 139.398 225.719 139.057C225.529 138.716 225.27 138.449 224.94 138.256C224.611 138.059 224.232 137.96 223.804 137.96C223.455 137.956 223.113 138.021 222.776 138.153C222.438 138.286 222.171 138.46 221.974 138.676L220.071 138.364L220.679 132.364H227.429V134.125H222.423L222.088 137.21H222.156C222.372 136.956 222.677 136.746 223.071 136.58C223.465 136.409 223.897 136.324 224.366 136.324C225.071 136.324 225.7 136.491 226.253 136.824C226.806 137.153 227.241 137.608 227.56 138.188C227.878 138.767 228.037 139.43 228.037 140.176C228.037 140.945 227.859 141.631 227.503 142.233C227.151 142.831 226.66 143.303 226.031 143.648C225.406 143.989 224.683 144.159 223.861 144.159Z" fill="white"/>
<g filter="url(#filter2_d_24_225)">
<circle cx="145" cy="138" r="20" fill="#6485C6"/>
</g>
<path d="M145.499 144.159C144.681 144.159 143.954 144.019 143.317 143.739C142.685 143.458 142.185 143.068 141.817 142.568C141.45 142.068 141.255 141.491 141.232 140.835H143.369C143.388 141.15 143.492 141.424 143.681 141.659C143.871 141.89 144.122 142.07 144.437 142.199C144.751 142.328 145.103 142.392 145.494 142.392C145.91 142.392 146.28 142.32 146.602 142.176C146.924 142.028 147.175 141.824 147.357 141.562C147.539 141.301 147.628 141 147.624 140.659C147.628 140.307 147.537 139.996 147.352 139.727C147.166 139.458 146.897 139.248 146.545 139.097C146.196 138.945 145.776 138.869 145.283 138.869H144.255V137.244H145.283C145.689 137.244 146.043 137.174 146.346 137.034C146.653 136.894 146.893 136.697 147.067 136.443C147.242 136.186 147.327 135.888 147.323 135.551C147.327 135.222 147.253 134.936 147.102 134.693C146.954 134.447 146.744 134.256 146.471 134.119C146.202 133.983 145.886 133.915 145.522 133.915C145.166 133.915 144.836 133.979 144.533 134.108C144.23 134.237 143.986 134.42 143.8 134.659C143.615 134.894 143.516 135.174 143.505 135.5H141.477C141.492 134.848 141.679 134.277 142.039 133.784C142.403 133.288 142.888 132.902 143.494 132.625C144.1 132.345 144.78 132.205 145.533 132.205C146.31 132.205 146.984 132.35 147.556 132.642C148.132 132.93 148.577 133.318 148.891 133.807C149.206 134.295 149.363 134.835 149.363 135.426C149.367 136.081 149.174 136.631 148.783 137.074C148.397 137.517 147.889 137.807 147.261 137.943V138.034C148.079 138.148 148.706 138.451 149.141 138.943C149.581 139.432 149.799 140.04 149.795 140.767C149.795 141.419 149.609 142.002 149.238 142.517C148.871 143.028 148.363 143.43 147.715 143.722C147.071 144.013 146.333 144.159 145.499 144.159Z" fill="white"/>
<g filter="url(#filter3_d_24_225)">
<circle cx="295" cy="138" r="20" fill="#6485C6"/>
</g>
<path d="M292.259 132.364V144H290.151V134.415H290.083L287.362 136.153V134.222L290.254 132.364H292.259ZM299.35 144.159C298.505 144.159 297.755 144.017 297.1 143.733C296.449 143.449 295.937 143.061 295.566 142.568C295.199 142.072 295.017 141.509 295.021 140.881C295.017 140.392 295.123 139.943 295.339 139.534C295.555 139.125 295.846 138.784 296.214 138.511C296.585 138.235 296.998 138.059 297.452 137.983V137.903C296.854 137.771 296.369 137.466 295.998 136.989C295.63 136.508 295.449 135.953 295.452 135.324C295.449 134.725 295.615 134.191 295.952 133.722C296.29 133.252 296.752 132.883 297.339 132.614C297.926 132.341 298.596 132.205 299.35 132.205C300.096 132.205 300.761 132.341 301.344 132.614C301.932 132.883 302.394 133.252 302.731 133.722C303.072 134.191 303.242 134.725 303.242 135.324C303.242 135.953 303.055 136.508 302.68 136.989C302.308 137.466 301.829 137.771 301.242 137.903V137.983C301.697 138.059 302.106 138.235 302.469 138.511C302.837 138.784 303.129 139.125 303.344 139.534C303.564 139.943 303.674 140.392 303.674 140.881C303.674 141.509 303.488 142.072 303.117 142.568C302.746 143.061 302.235 143.449 301.583 143.733C300.935 144.017 300.191 144.159 299.35 144.159ZM299.35 142.534C299.786 142.534 300.165 142.46 300.487 142.312C300.808 142.161 301.058 141.949 301.237 141.676C301.415 141.403 301.505 141.089 301.509 140.733C301.505 140.362 301.409 140.034 301.219 139.75C301.034 139.462 300.778 139.237 300.452 139.074C300.13 138.911 299.763 138.83 299.35 138.83C298.933 138.83 298.562 138.911 298.237 139.074C297.911 139.237 297.653 139.462 297.464 139.75C297.278 140.034 297.187 140.362 297.191 140.733C297.187 141.089 297.274 141.403 297.452 141.676C297.63 141.945 297.88 142.155 298.202 142.307C298.528 142.458 298.911 142.534 299.35 142.534ZM299.35 137.233C299.706 137.233 300.021 137.161 300.293 137.017C300.57 136.873 300.788 136.672 300.947 136.415C301.106 136.157 301.187 135.86 301.191 135.523C301.187 135.189 301.108 134.898 300.952 134.648C300.797 134.394 300.581 134.199 300.305 134.062C300.028 133.922 299.71 133.852 299.35 133.852C298.983 133.852 298.659 133.922 298.379 134.062C298.102 134.199 297.886 134.394 297.731 134.648C297.579 134.898 297.505 135.189 297.509 135.523C297.505 135.86 297.581 136.157 297.737 136.415C297.896 136.669 298.113 136.869 298.39 137.017C298.67 137.161 298.99 137.233 299.35 137.233Z" fill="white"/>
<g filter="url(#filter4_d_24_225)">
<circle cx="70" cy="252" r="20" fill="#EB1724"/>
</g>
<g filter="url(#filter5_d_24_225)">
<path d="M62.2216 258V256.477L66.2614 252.517C66.6477 252.127 66.9697 251.78 67.2273 251.477C67.4848 251.174 67.678 250.881 67.8068 250.597C67.9356 250.312 68 250.009 68 249.688C68 249.32 67.9167 249.006 67.75 248.744C67.5833 248.479 67.3542 248.275 67.0625 248.131C66.7708 247.987 66.4394 247.915 66.0682 247.915C65.6856 247.915 65.3504 247.994 65.0625 248.153C64.7746 248.309 64.5511 248.53 64.392 248.818C64.2367 249.106 64.1591 249.449 64.1591 249.847H62.1534C62.1534 249.108 62.322 248.466 62.6591 247.92C62.9962 247.375 63.4602 246.953 64.0511 246.653C64.6458 246.354 65.3277 246.205 66.0966 246.205C66.8769 246.205 67.5625 246.35 68.1534 246.642C68.7443 246.934 69.2027 247.333 69.5284 247.841C69.858 248.348 70.0227 248.928 70.0227 249.58C70.0227 250.015 69.9394 250.443 69.7727 250.864C69.6061 251.284 69.3125 251.75 68.892 252.261C68.4754 252.773 67.8902 253.392 67.1364 254.119L65.1307 256.159V256.239H70.1989V258H62.2216ZM76.892 246.364V258H74.7841V248.415H74.7159L71.9943 250.153V248.222L74.8864 246.364H76.892Z" fill="white"/>
</g>
<g filter="url(#filter6_d_24_225)">
<circle cx="220" cy="252" r="20" fill="#EB1724"/>
</g>
<g filter="url(#filter7_d_24_225)">
<path d="M217.095 246.364V258H214.987V248.415H214.919L212.197 250.153V248.222L215.089 246.364H217.095ZM219.839 255.841V254.165L224.777 246.364H226.175V248.75H225.322L221.999 254.017V254.108H228.891V255.841H219.839ZM225.391 258V255.33L225.413 254.58V246.364H227.402V258H225.391Z" fill="white"/>
</g>
<g filter="url(#filter8_d_24_225)">
<circle cx="145" cy="252" r="20" fill="#EB1724"/>
</g>
<g filter="url(#filter9_d_24_225)">
<path d="M145.506 258.159C144.662 258.159 143.912 258.017 143.256 257.733C142.605 257.449 142.094 257.061 141.722 256.568C141.355 256.072 141.173 255.509 141.177 254.881C141.173 254.392 141.279 253.943 141.495 253.534C141.711 253.125 142.003 252.784 142.37 252.511C142.741 252.235 143.154 252.059 143.609 251.983V251.903C143.01 251.771 142.525 251.466 142.154 250.989C141.787 250.508 141.605 249.953 141.609 249.324C141.605 248.725 141.772 248.191 142.109 247.722C142.446 247.252 142.908 246.883 143.495 246.614C144.082 246.341 144.753 246.205 145.506 246.205C146.253 246.205 146.917 246.341 147.501 246.614C148.088 246.883 148.55 247.252 148.887 247.722C149.228 248.191 149.398 248.725 149.398 249.324C149.398 249.953 149.211 250.508 148.836 250.989C148.465 251.466 147.986 251.771 147.398 251.903V251.983C147.853 252.059 148.262 252.235 148.626 252.511C148.993 252.784 149.285 253.125 149.501 253.534C149.72 253.943 149.83 254.392 149.83 254.881C149.83 255.509 149.645 256.072 149.273 256.568C148.902 257.061 148.391 257.449 147.739 257.733C147.092 258.017 146.347 258.159 145.506 258.159ZM145.506 256.534C145.942 256.534 146.321 256.46 146.643 256.312C146.965 256.161 147.215 255.949 147.393 255.676C147.571 255.403 147.662 255.089 147.665 254.733C147.662 254.362 147.565 254.034 147.376 253.75C147.19 253.462 146.934 253.237 146.609 253.074C146.287 252.911 145.919 252.83 145.506 252.83C145.09 252.83 144.719 252.911 144.393 253.074C144.067 253.237 143.809 253.462 143.62 253.75C143.434 254.034 143.344 254.362 143.347 254.733C143.344 255.089 143.431 255.403 143.609 255.676C143.787 255.945 144.037 256.155 144.359 256.307C144.684 256.458 145.067 256.534 145.506 256.534ZM145.506 251.233C145.862 251.233 146.177 251.161 146.45 251.017C146.726 250.873 146.944 250.672 147.103 250.415C147.262 250.157 147.344 249.86 147.347 249.523C147.344 249.189 147.264 248.898 147.109 248.648C146.953 248.394 146.737 248.199 146.461 248.062C146.184 247.922 145.866 247.852 145.506 247.852C145.139 247.852 144.815 247.922 144.535 248.062C144.258 248.199 144.042 248.394 143.887 248.648C143.736 248.898 143.662 249.189 143.665 249.523C143.662 249.86 143.737 250.157 143.893 250.415C144.052 250.669 144.27 250.869 144.546 251.017C144.826 251.161 145.147 251.233 145.506 251.233Z" fill="white"/>
</g>
<g filter="url(#filter10_d_24_225)">
<circle cx="220" cy="352" r="20" fill="#094ED6"/>
</g>
<path d="M216.765 358L221.714 348.205V348.125H215.969V346.364H223.896V348.165L218.952 358H216.765Z" fill="white"/>
<g filter="url(#filter11_d_24_225)">
<circle cx="145" cy="352" r="20" fill="#094ED6"/>
</g>
<path d="M143.08 346.364V358H140.972V348.415H140.903L138.182 350.153V348.222L141.074 346.364H143.08ZM150.767 346.364V358H148.659V348.415H148.591L145.869 350.153V348.222L148.761 346.364H150.767Z" fill="white"/>
<g filter="url(#filter12_d_24_225)">
<circle cx="295" cy="252" r="20" fill="#EB1724"/>
</g>
<g filter="url(#filter13_d_24_225)">
<path d="M295.608 258.159C295.051 258.155 294.508 258.059 293.977 257.869C293.447 257.676 292.97 257.364 292.545 256.932C292.121 256.496 291.784 255.919 291.534 255.199C291.284 254.475 291.161 253.58 291.165 252.511C291.165 251.515 291.271 250.627 291.483 249.847C291.695 249.066 292 248.407 292.398 247.869C292.795 247.328 293.275 246.915 293.835 246.631C294.4 246.347 295.03 246.205 295.727 246.205C296.458 246.205 297.106 246.348 297.67 246.636C298.239 246.924 298.697 247.318 299.045 247.818C299.394 248.314 299.61 248.875 299.693 249.5H297.619C297.513 249.053 297.295 248.697 296.966 248.432C296.64 248.163 296.227 248.028 295.727 248.028C294.92 248.028 294.299 248.379 293.864 249.08C293.432 249.78 293.214 250.742 293.21 251.966H293.29C293.475 251.633 293.716 251.347 294.011 251.108C294.307 250.869 294.64 250.686 295.011 250.557C295.386 250.424 295.782 250.358 296.199 250.358C296.881 250.358 297.492 250.521 298.034 250.847C298.58 251.172 299.011 251.621 299.33 252.193C299.648 252.761 299.805 253.413 299.801 254.148C299.805 254.913 299.631 255.6 299.278 256.21C298.926 256.816 298.436 257.294 297.807 257.642C297.178 257.991 296.445 258.163 295.608 258.159ZM295.597 256.455C296.009 256.455 296.379 256.354 296.705 256.153C297.03 255.953 297.288 255.682 297.477 255.341C297.667 255 297.759 254.617 297.756 254.193C297.759 253.777 297.669 253.4 297.483 253.062C297.301 252.725 297.049 252.458 296.727 252.261C296.405 252.064 296.038 251.966 295.625 251.966C295.318 251.966 295.032 252.025 294.767 252.142C294.502 252.259 294.271 252.422 294.074 252.631C293.877 252.835 293.722 253.074 293.608 253.347C293.498 253.616 293.441 253.903 293.438 254.21C293.441 254.616 293.536 254.989 293.722 255.33C293.907 255.67 294.163 255.943 294.489 256.148C294.814 256.352 295.184 256.455 295.597 256.455Z" fill="white"/>
</g>
<g filter="url(#filter14_d_24_225)">
<circle cx="179" cy="54" r="20" fill="#C1E000"/>
</g>
<path d="M180.923 48.3636V60H178.815V50.4148H178.747L176.026 52.1534V50.2216L178.918 48.3636H180.923Z" fill="white"/>
<defs>
<filter id="filter0_d_24_225" x="46" y="118" width="48" height="48" filterUnits="userSpaceOnUse" color-interpolation-filters="sRGB">
<feFlood flood-opacity="0" result="BackgroundImageFix"/>
<feColorMatrix in="SourceAlpha" type="matrix" values="0 0 0 0 0 0 0 0 0 0 0 0 0 0 0 0 0 0 127 0" result="hardAlpha"/>
<feOffset dy="4"/>
<feGaussianBlur stdDeviation="2"/>
<feComposite in2="hardAlpha" operator="out"/>
<feColorMatrix type="matrix" values="0 0 0 0 0 0 0 0 0 0 0 0 0 0 0 0 0 0 0.25 0"/>
<feBlend mode="normal" in2="BackgroundImageFix" result="effect1_dropShadow_24_225"/>
<feBlend mode="normal" in="SourceGraphic" in2="effect1_dropShadow_24_225" result="shape"/>
</filter>
<filter id="filter1_d_24_225" x="196" y="118" width="48" height="48" filterUnits="userSpaceOnUse" color-interpolation-filters="sRGB">
<feFlood flood-opacity="0" result="BackgroundImageFix"/>
<feColorMatrix in="SourceAlpha" type="matrix" values="0 0 0 0 0 0 0 0 0 0 0 0 0 0 0 0 0 0 127 0" result="hardAlpha"/>
<feOffset dy="4"/>
<feGaussianBlur stdDeviation="2"/>
<feComposite in2="hardAlpha" operator="out"/>
<feColorMatrix type="matrix" values="0 0 0 0 0 0 0 0 0 0 0 0 0 0 0 0 0 0 0.25 0"/>
<feBlend mode="normal" in2="BackgroundImageFix" result="effect1_dropShadow_24_225"/>
<feBlend mode="normal" in="SourceGraphic" in2="effect1_dropShadow_24_225" result="shape"/>
</filter>
<filter id="filter2_d_24_225" x="121" y="118" width="48" height="48" filterUnits="userSpaceOnUse" color-interpolation-filters="sRGB">
<feFlood flood-opacity="0" result="BackgroundImageFix"/>
<feColorMatrix in="SourceAlpha" type="matrix" values="0 0 0 0 0 0 0 0 0 0 0 0 0 0 0 0 0 0 127 0" result="hardAlpha"/>
<feOffset dy="4"/>
<feGaussianBlur stdDeviation="2"/>
<feComposite in2="hardAlpha" operator="out"/>
<feColorMatrix type="matrix" values="0 0 0 0 0 0 0 0 0 0 0 0 0 0 0 0 0 0 0.25 0"/>
<feBlend mode="normal" in2="BackgroundImageFix" result="effect1_dropShadow_24_225"/>
<feBlend mode="normal" in="SourceGraphic" in2="effect1_dropShadow_24_225" result="shape"/>
</filter>
<filter id="filter3_d_24_225" x="271" y="118" width="48" height="48" filterUnits="userSpaceOnUse" color-interpolation-filters="sRGB">
<feFlood flood-opacity="0" result="BackgroundImageFix"/>
<feColorMatrix in="SourceAlpha" type="matrix" values="0 0 0 0 0 0 0 0 0 0 0 0 0 0 0 0 0 0 127 0" result="hardAlpha"/>
<feOffset dy="4"/>
<feGaussianBlur stdDeviation="2"/>
<feComposite in2="hardAlpha" operator="out"/>
<feColorMatrix type="matrix" values="0 0 0 0 0 0 0 0 0 0 0 0 0 0 0 0 0 0 0.25 0"/>
<feBlend mode="normal" in2="BackgroundImageFix" result="effect1_dropShadow_24_225"/>
<feBlend mode="normal" in="SourceGraphic" in2="effect1_dropShadow_24_225" result="shape"/>
</filter>
<filter id="filter4_d_24_225" x="46" y="232" width="48" height="48" filterUnits="userSpaceOnUse" color-interpolation-filters="sRGB">
<feFlood flood-opacity="0" result="BackgroundImageFix"/>
<feColorMatrix in="SourceAlpha" type="matrix" values="0 0 0 0 0 0 0 0 0 0 0 0 0 0 0 0 0 0 127 0" result="hardAlpha"/>
<feOffset dy="4"/>
<feGaussianBlur stdDeviation="2"/>
<feComposite in2="hardAlpha" operator="out"/>
<feColorMatrix type="matrix" values="0 0 0 0 0 0 0 0 0 0 0 0 0 0 0 0 0 0 0.25 0"/>
<feBlend mode="normal" in2="BackgroundImageFix" result="effect1_dropShadow_24_225"/>
<feBlend mode="normal" in="SourceGraphic" in2="effect1_dropShadow_24_225" result="shape"/>
</filter>
<filter id="filter5_d_24_225" x="58.1534" y="246.205" width="22.7386" height="19.7955" filterUnits="userSpaceOnUse" color-interpolation-filters="sRGB">
<feFlood flood-opacity="0" result="BackgroundImageFix"/>
<feColorMatrix in="SourceAlpha" type="matrix" values="0 0 0 0 0 0 0 0 0 0 0 0 0 0 0 0 0 0 127 0" result="hardAlpha"/>
<feOffset dy="4"/>
<feGaussianBlur stdDeviation="2"/>
<feComposite in2="hardAlpha" operator="out"/>
<feColorMatrix type="matrix" values="0 0 0 0 0 0 0 0 0 0 0 0 0 0 0 0 0 0 0.25 0"/>
<feBlend mode="normal" in2="BackgroundImageFix" result="effect1_dropShadow_24_225"/>
<feBlend mode="normal" in="SourceGraphic" in2="effect1_dropShadow_24_225" result="shape"/>
</filter>
<filter id="filter6_d_24_225" x="196" y="232" width="48" height="48" filterUnits="userSpaceOnUse" color-interpolation-filters="sRGB">
<feFlood flood-opacity="0" result="BackgroundImageFix"/>
<feColorMatrix in="SourceAlpha" type="matrix" values="0 0 0 0 0 0 0 0 0 0 0 0 0 0 0 0 0 0 127 0" result="hardAlpha"/>
<feOffset dy="4"/>
<feGaussianBlur stdDeviation="2"/>
<feComposite in2="hardAlpha" operator="out"/>
<feColorMatrix type="matrix" values="0 0 0 0 0 0 0 0 0 0 0 0 0 0 0 0 0 0 0.25 0"/>
<feBlend mode="normal" in2="BackgroundImageFix" result="effect1_dropShadow_24_225"/>
<feBlend mode="normal" in="SourceGraphic" in2="effect1_dropShadow_24_225" result="shape"/>
</filter>
<filter id="filter7_d_24_225" x="208.197" y="246.364" width="24.6932" height="19.6364" filterUnits="userSpaceOnUse" color-interpolation-filters="sRGB">
<feFlood flood-opacity="0" result="BackgroundImageFix"/>
<feColorMatrix in="SourceAlpha" type="matrix" values="0 0 0 0 0 0 0 0 0 0 0 0 0 0 0 0 0 0 127 0" result="hardAlpha"/>
<feOffset dy="4"/>
<feGaussianBlur stdDeviation="2"/>
<feComposite in2="hardAlpha" operator="out"/>
<feColorMatrix type="matrix" values="0 0 0 0 0 0 0 0 0 0 0 0 0 0 0 0 0 0 0.25 0"/>
<feBlend mode="normal" in2="BackgroundImageFix" result="effect1_dropShadow_24_225"/>
<feBlend mode="normal" in="SourceGraphic" in2="effect1_dropShadow_24_225" result="shape"/>
</filter>
<filter id="filter8_d_24_225" x="121" y="232" width="48" height="48" filterUnits="userSpaceOnUse" color-interpolation-filters="sRGB">
<feFlood flood-opacity="0" result="BackgroundImageFix"/>
<feColorMatrix in="SourceAlpha" type="matrix" values="0 0 0 0 0 0 0 0 0 0 0 0 0 0 0 0 0 0 127 0" result="hardAlpha"/>
<feOffset dy="4"/>
<feGaussianBlur stdDeviation="2"/>
<feComposite in2="hardAlpha" operator="out"/>
<feColorMatrix type="matrix" values="0 0 0 0 0 0 0 0 0 0 0 0 0 0 0 0 0 0 0.25 0"/>
<feBlend mode="normal" in2="BackgroundImageFix" result="effect1_dropShadow_24_225"/>
<feBlend mode="normal" in="SourceGraphic" in2="effect1_dropShadow_24_225" result="shape"/>
</filter>
<filter id="filter9_d_24_225" x="137.171" y="246.205" width="16.6591" height="19.9545" filterUnits="userSpaceOnUse" color-interpolation-filters="sRGB">
<feFlood flood-opacity="0" result="BackgroundImageFix"/>
<feColorMatrix in="SourceAlpha" type="matrix" values="0 0 0 0 0 0 0 0 0 0 0 0 0 0 0 0 0 0 127 0" result="hardAlpha"/>
<feOffset dy="4"/>
<feGaussianBlur stdDeviation="2"/>
<feComposite in2="hardAlpha" operator="out"/>
<feColorMatrix type="matrix" values="0 0 0 0 0 0 0 0 0 0 0 0 0 0 0 0 0 0 0.25 0"/>
<feBlend mode="normal" in2="BackgroundImageFix" result="effect1_dropShadow_24_225"/>
<feBlend mode="normal" in="SourceGraphic" in2="effect1_dropShadow_24_225" result="shape"/>
</filter>
<filter id="filter10_d_24_225" x="196" y="332" width="48" height="48" filterUnits="userSpaceOnUse" color-interpolation-filters="sRGB">
<feFlood flood-opacity="0" result="BackgroundImageFix"/>
<feColorMatrix in="SourceAlpha" type="matrix" values="0 0 0 0 0 0 0 0 0 0 0 0 0 0 0 0 0 0 127 0" result="hardAlpha"/>
<feOffset dy="4"/>
<feGaussianBlur stdDeviation="2"/>
<feComposite in2="hardAlpha" operator="out"/>
<feColorMatrix type="matrix" values="0 0 0 0 0 0 0 0 0 0 0 0 0 0 0 0 0 0 0.25 0"/>
<feBlend mode="normal" in2="BackgroundImageFix" result="effect1_dropShadow_24_225"/>
<feBlend mode="normal" in="SourceGraphic" in2="effect1_dropShadow_24_225" result="shape"/>
</filter>
<filter id="filter11_d_24_225" x="121" y="332" width="48" height="48" filterUnits="userSpaceOnUse" color-interpolation-filters="sRGB">
<feFlood flood-opacity="0" result="BackgroundImageFix"/>
<feColorMatrix in="SourceAlpha" type="matrix" values="0 0 0 0 0 0 0 0 0 0 0 0 0 0 0 0 0 0 127 0" result="hardAlpha"/>
<feOffset dy="4"/>
<feGaussianBlur stdDeviation="2"/>
<feComposite in2="hardAlpha" operator="out"/>
<feColorMatrix type="matrix" values="0 0 0 0 0 0 0 0 0 0 0 0 0 0 0 0 0 0 0.25 0"/>
<feBlend mode="normal" in2="BackgroundImageFix" result="effect1_dropShadow_24_225"/>
<feBlend mode="normal" in="SourceGraphic" in2="effect1_dropShadow_24_225" result="shape"/>
</filter>
<filter id="filter12_d_24_225" x="271" y="232" width="48" height="48" filterUnits="userSpaceOnUse" color-interpolation-filters="sRGB">
<feFlood flood-opacity="0" result="BackgroundImageFix"/>
<feColorMatrix in="SourceAlpha" type="matrix" values="0 0 0 0 0 0 0 0 0 0 0 0 0 0 0 0 0 0 127 0" result="hardAlpha"/>
<feOffset dy="4"/>
<feGaussianBlur stdDeviation="2"/>
<feComposite in2="hardAlpha" operator="out"/>
<feColorMatrix type="matrix" values="0 0 0 0 0 0 0 0 0 0 0 0 0 0 0 0 0 0 0.25 0"/>
<feBlend mode="normal" in2="BackgroundImageFix" result="effect1_dropShadow_24_225"/>
<feBlend mode="normal" in="SourceGraphic" in2="effect1_dropShadow_24_225" result="shape"/>
</filter>
<filter id="filter13_d_24_225" x="287.159" y="246.205" width="16.6477" height="19.9602" filterUnits="userSpaceOnUse" color-interpolation-filters="sRGB">
<feFlood flood-opacity="0" result="BackgroundImageFix"/>
<feColorMatrix in="SourceAlpha" type="matrix" values="0 0 0 0 0 0 0 0 0 0 0 0 0 0 0 0 0 0 127 0" result="hardAlpha"/>
<feOffset dy="4"/>
<feGaussianBlur stdDeviation="2"/>
<feComposite in2="hardAlpha" operator="out"/>
<feColorMatrix type="matrix" values="0 0 0 0 0 0 0 0 0 0 0 0 0 0 0 0 0 0 0.25 0"/>
<feBlend mode="normal" in2="BackgroundImageFix" result="effect1_dropShadow_24_225"/>
<feBlend mode="normal" in="SourceGraphic" in2="effect1_dropShadow_24_225" result="shape"/>
</filter>
<filter id="filter14_d_24_225" x="155" y="34" width="48" height="48" filterUnits="userSpaceOnUse" color-interpolation-filters="sRGB">
<feFlood flood-opacity="0" result="BackgroundImageFix"/>
<feColorMatrix in="SourceAlpha" type="matrix" values="0 0 0 0 0 0 0 0 0 0 0 0 0 0 0 0 0 0 127 0" result="hardAlpha"/>
<feOffset dy="4"/>
<feGaussianBlur stdDeviation="2"/>
<feComposite in2="hardAlpha" operator="out"/>
<feColorMatrix type="matrix" values="0 0 0 0 0 0 0 0 0 0 0 0 0 0 0 0 0 0 0.25 0"/>
<feBlend mode="normal" in2="BackgroundImageFix" result="effect1_dropShadow_24_225"/>
<feBlend mode="normal" in="SourceGraphic" in2="effect1_dropShadow_24_225" result="shape"/>
</filter>
</defs>
</svg>
